<?xml version="1.0" encoding="UTF-8"?>
<svg width="192px" height="192px" viewBox="0 0 192 192" version="1.1" xmlns="http://www.w3.org/2000/svg" xmlns:xlink="http://www.w3.org/1999/xlink">
    <title>btn_48x48_hw_singin_light_normal</title>
    <defs>
        <polygon id="path-1" points="0 97.9578947 98.979672 97.9578947 98.979672 0.134823769 0 0.134823769"></polygon>
    </defs>
    <g id="btn_48x48_hw_singin_light_normal" stroke="none" stroke-width="1" fill="none" fill-rule="evenodd">
        <rect id="矩形" fill="#FFFFFF" x="0" y="0" width="192" height="192" rx="96"></rect>
        <g id="编组-2" transform="translate(42.000000, 42.000000)">
            <rect id="矩形" x="0" y="0" width="108" height="108"></rect>
            <g id="编组" transform="translate(4.500000, 4.500000)">
                <g transform="translate(0.000000, 0.521053)">
                    <mask id="mask-2" fill="white">
                        <use xlink:href="#path-1"></use>
                    </mask>
                    <g id="Clip-9"></g>
                    <path d="M5.26605905,82.3263158 L5.26605905,88.632537 L12.4502424,88.632537 L12.4502424,82.3263158 L15.6315789,82.3263158 L15.6315789,97.9578947 L12.4502424,97.9578947 L12.4502424,91.6098226 L5.26605905,91.6098226 L5.26605905,97.9578947 L2.08421053,97.9578947 L2.08421053,82.3263158 L5.26605905,82.3263158 Z M33.9868584,81.5866552 L33.9868584,90.685153 C33.9868584,95.3070804 31.4355624,97.9580001 26.9866344,97.9580001 C22.5799464,97.9580001 20.0526744,95.355796 20.0526744,90.8186602 L20.0526744,90.8186602 L20.0526744,81.596135 L23.3334024,81.596135 L23.3334024,90.7075359 C23.3334024,93.4019047 24.6465384,94.8417804 27.0307224,94.8417804 C29.4009144,94.8417804 30.7061304,93.4414038 30.7061304,90.8186602 L30.7061304,90.8186602 L30.7061304,81.5866552 L33.9868584,81.5866552 Z M64.9542432,81.5844433 L68.6262192,92.6779115 L72.2063232,81.5939231 L75.6084912,81.5939231 L69.9871392,97.7166866 L67.2470832,97.7166866 L63.5711472,87.1253842 L59.8938912,97.7166866 L57.1765392,97.7166866 L51.5414592,81.5939231 L55.0336512,81.5939231 L58.6055712,92.6779115 L62.2764912,81.5844433 L64.9542432,81.5844433 Z M45.6428808,81.5866289 L45.7065048,81.6798469 L52.7632248,97.7070225 L49.3243608,97.7070225 L47.8726248,94.3495946 L40.4719128,94.3495946 L40.3729128,94.5852729 L38.9990568,97.7070225 L35.6502168,97.7070225 L42.7739928,81.5866289 L45.6428808,81.5866289 Z M90.1534392,81.5975833 L90.1534392,84.5355302 L81.4908072,84.5355302 L81.4908072,87.8371326 L87.4587912,87.8371326 L87.4587912,90.7750794 L81.4908072,90.7750794 L81.4908072,94.7687069 L90.4652232,94.7687069 L90.4652232,97.7063905 L78.2539032,97.7063905 L78.2539032,81.5975833 L90.1534392,81.5975833 Z M97.615056,81.5857599 L97.615056,97.6943037 L94.378416,97.6943037 L94.378416,81.5857599 L97.615056,81.5857599 Z M44.1642168,85.6682079 L41.8444488,91.0669518 L41.8492008,91.0669518 L41.6921208,91.4414038 L46.6526808,91.4414038 L46.4956008,91.0669518 L46.5035208,91.0669518 L44.1642168,85.6682079 Z" id="Fill-9" fill="#262729" mask="url(#mask-2)"></path>
                </g>
                <path d="M58.705254,63.0473684 L88.5789474,64.1111362 C81.8825498,75.8993584 74.1694873,73.2027098 74.1694873,73.2027098 C69.995165,72.0004278 61.3363243,65.7993132 58.4800687,63.7038057 L58.4800687,63.7038057 C58.3068493,63.5644701 58.3681423,63.2888103 58.3681423,63.2888103 C58.442227,63.0900724 58.7044546,63.0550332 58.7044546,63.0550332 L58.7044546,63.0550332 L58.705254,63.0473684 Z M40.2444317,63.0473684 C40.2444317,63.0553178 40.5545009,63.0553178 40.6282888,63.3313538 C40.6282888,63.3313538 40.7082035,63.500484 40.4836431,63.7126507 L40.4836431,63.7126507 L40.4913682,63.7189554 C37.5640916,65.863922 28.6935563,72.2091854 24.7772016,73.2119059 C19.10219,74.6216903 13.6544027,70.0296801 10.4210526,64.1142323 L10.4210526,64.1142323 L40.2444317,63.0473684 Z M1.89628909,38.0368421 C1.89628909,38.0368421 27.3533884,51.4986603 40.4877805,60.2665061 L40.4877805,60.2665061 C40.4853766,60.273402 40.743118,60.4816045 40.5975542,60.7118208 C40.5975542,60.7118208 40.4877805,60.9086186 40.2917368,60.9123318 C35.6454482,60.9327542 18.3084032,61.0067523 17.8594258,60.9269192 C17.8594258,60.9269192 15.0007672,60.8460252 12.1397047,59.6848652 C12.1397047,59.6848652 5.94509846,57.6288321 2.7004955,50.8406342 C2.7004955,50.8406342 -0.416705775,45.1276631 1.89628909,38.0368421 Z M97.0967113,38.0368421 C99.292921,44.5949898 96.6167093,50.2374839 96.4388591,50.6004336 L96.4296723,50.6189737 C93.1425618,57.7384146 86.8058247,59.7312325 86.8058247,59.7312325 C83.9565504,60.8102007 81.6551723,60.9005786 81.6551723,60.9005786 C81.2047807,60.9814151 63.3873326,60.9647177 58.6827975,60.9541162 L58.6827975,60.9541162 C58.4968708,60.9512008 58.375591,60.7309545 58.375591,60.7309545 C58.2925116,60.4545202 58.5289271,60.3013285 58.5289271,60.3013285 L58.5289271,60.3013285 C71.6706909,51.5275227 97.0967113,38.0368421 97.0967113,38.0368421 Z M82.8825959,14.0684211 C82.8825959,14.0684211 91.1712555,21.7170775 90.6385369,29.9816993 C90.3979205,35.9300372 85.7988885,39.6390537 85.7988885,39.6390537 C78.5378399,46.7391861 61.0048845,55.6893307 56.7935708,57.7905954 L56.7935708,57.7905954 C56.5983983,57.9133124 56.3945573,57.7612385 56.3945573,57.7612385 C56.1830985,57.5747827 56.3133886,57.2904706 56.3133886,57.2904706 L56.3133886,57.2904706 C67.5453971,32.6970781 82.8825959,14.0684211 82.8825959,14.0684211 Z M16.148484,13.3677565 C16.148484,13.3677565 31.60542,31.9731733 42.90726,56.5158392 L42.90726,56.5158392 C42.9957,56.7383511 42.823836,56.8708049 42.823836,56.8708049 C42.69738,57.0282749 42.485652,56.9577031 42.428364,56.9361102 C38.301252,54.9013772 20.544612,45.9303301 13.210692,38.8273294 C13.210692,38.8273294 8.659596,35.2668759 8.339364,29.2524718 C7.740876,21.3060326 16.148484,13.3677565 16.148484,13.3677565 Z M42.2638717,1.56315789 C42.2638717,1.56315789 51.0423871,12.8370131 46.759231,55.3748788 L46.759231,55.3748788 C46.7555082,55.3711695 46.7754521,55.6559899 46.4770911,55.7397139 C46.4770911,55.7397139 46.319933,55.812045 46.1242167,55.6143929 C43.3424388,51.615514 30.3945806,32.5653986 27.7617174,20.9712197 C27.7617174,20.9712197 26.2856015,16.0643598 27.7252865,11.5936063 C27.7252865,11.5936063 29.5885804,4.48607793 37.470949,2.46610491 C37.470949,2.46610491 40.9683147,1.67470153 42.2638717,1.56315789 Z M56.7758006,1.56315789 C59.1883609,1.9014727 61.4647327,2.47054098 61.4647327,2.47054098 C69.3610135,4.37882722 71.3078193,11.5928539 71.3078193,11.5928539 C72.6803454,15.3776349 71.2583446,20.969764 71.2583446,20.969764 C68.6404373,32.5169754 55.7636956,51.4631343 52.9069262,55.5668902 L52.9069262,55.5668902 C52.9045323,55.5645058 52.7579699,55.8373831 52.4725589,55.7258478 C52.4725589,55.7258478 52.2759898,55.6702126 52.2448686,55.4018392 L52.2448686,55.4018392 C47.9477448,12.8422608 56.7758006,1.56315789 56.7758006,1.56315789 Z" id="Fill-55" fill="#CE0E2D"></path>
            </g>
        </g>
    </g>
</svg>