<?xml version="1.0" encoding="UTF-8"?>
<svg width="192px" height="192px" viewBox="0 0 192 192" version="1.1" xmlns="http://www.w3.org/2000/svg" xmlns:xlink="http://www.w3.org/1999/xlink">
    <title>btn_48x48_hw_singin_light_red</title>
    <defs>
        <polygon id="path-1" points="0 97.9578947 98.979672 97.9578947 98.979672 0.134823769 0 0.134823769"></polygon>
    </defs>
    <g id="btn_48x48_hw_singin_light_red" stroke="none" stroke-width="1" fill="none" fill-rule="evenodd">
        <rect id="矩形" fill="#CE0E2D" x="0" y="0" width="192" height="192" rx="96"></rect>
        <g id="编组" transform="translate(42.000000, 42.000000)">
            <rect id="矩形" x="0" y="0" width="108" height="108"></rect>
            <g transform="translate(4.500000, 5.021053)">
                <mask id="mask-2" fill="white">
                    <use xlink:href="#path-1"></use>
                </mask>
                <g id="Clip-9"></g>
                <path d="M5.26605905,82.3263158 L5.26605905,88.632537 L12.4502424,88.632537 L12.4502424,82.3263158 L15.6315789,82.3263158 L15.6315789,97.9578947 L12.4502424,97.9578947 L12.4502424,91.6098226 L5.26605905,91.6098226 L5.26605905,97.9578947 L2.08421053,97.9578947 L2.08421053,82.3263158 L5.26605905,82.3263158 Z M33.9868584,81.5866552 L33.9868584,90.685153 C33.9868584,95.3070804 31.4355624,97.9580001 26.9866344,97.9580001 C22.5799464,97.9580001 20.0526744,95.355796 20.0526744,90.8186602 L20.0526744,90.8186602 L20.0526744,81.596135 L23.3334024,81.596135 L23.3334024,90.7075359 C23.3334024,93.4019047 24.6465384,94.8417804 27.0307224,94.8417804 C29.4009144,94.8417804 30.7061304,93.4414038 30.7061304,90.8186602 L30.7061304,90.8186602 L30.7061304,81.5866552 L33.9868584,81.5866552 Z M64.9542432,81.5844433 L68.6262192,92.6779115 L72.2063232,81.5939231 L75.6084912,81.5939231 L69.9871392,97.7166866 L67.2470832,97.7166866 L63.5711472,87.1253842 L59.8938912,97.7166866 L57.1765392,97.7166866 L51.5414592,81.5939231 L55.0336512,81.5939231 L58.6055712,92.6779115 L62.2764912,81.5844433 L64.9542432,81.5844433 Z M45.6428808,81.5866289 L45.7065048,81.6798469 L52.7632248,97.7070225 L49.3243608,97.7070225 L47.8726248,94.3495946 L40.4719128,94.3495946 L40.3729128,94.5852729 L38.9990568,97.7070225 L35.6502168,97.7070225 L42.7739928,81.5866289 L45.6428808,81.5866289 Z M90.1534392,81.5975833 L90.1534392,84.5355302 L81.4908072,84.5355302 L81.4908072,87.8371326 L87.4587912,87.8371326 L87.4587912,90.7750794 L81.4908072,90.7750794 L81.4908072,94.7687069 L90.4652232,94.7687069 L90.4652232,97.7063905 L78.2539032,97.7063905 L78.2539032,81.5975833 L90.1534392,81.5975833 Z M97.615056,81.5857599 L97.615056,97.6943037 L94.378416,97.6943037 L94.378416,81.5857599 L97.615056,81.5857599 Z M44.1642168,85.6682079 L41.8444488,91.0669518 L41.8492008,91.0669518 L41.6921208,91.4414038 L46.6526808,91.4414038 L46.4956008,91.0669518 L46.5035208,91.0669518 L44.1642168,85.6682079 Z" id="Fill-9" fill="#FFFFFF" mask="url(#mask-2)"></path>
            </g>
            <path d="M63.205254,67.5473684 L93.0789474,68.6111362 C86.3825498,80.3993584 78.6694873,77.7027098 78.6694873,77.7027098 C74.495165,76.5004278 65.8363243,70.2993132 62.9800687,68.2038057 L62.9800687,68.2038057 C62.8068493,68.0644701 62.8681423,67.7888103 62.8681423,67.7888103 C62.942227,67.5900724 63.2044546,67.5550332 63.2044546,67.5550332 L63.2044546,67.5550332 L63.205254,67.5473684 Z M44.7444317,67.5473684 C44.7444317,67.5553178 45.0545009,67.5553178 45.1282888,67.8313538 C45.1282888,67.8313538 45.2082035,68.000484 44.9836431,68.2126507 L44.9836431,68.2126507 L44.9913682,68.2189554 C42.0640916,70.363922 33.1935563,76.7091854 29.2772016,77.7119059 C23.60219,79.1216903 18.1544027,74.5296801 14.9210526,68.6142323 L14.9210526,68.6142323 L44.7444317,67.5473684 Z M6.39628909,42.5368421 C6.39628909,42.5368421 31.8533884,55.9986603 44.9877805,64.7665061 L44.9877805,64.7665061 C44.9853766,64.773402 45.243118,64.9816045 45.0975542,65.2118208 C45.0975542,65.2118208 44.9877805,65.4086186 44.7917368,65.4123318 C40.1454482,65.4327542 22.8084032,65.5067523 22.3594258,65.4269192 C22.3594258,65.4269192 19.5007672,65.3460252 16.6397047,64.1848652 C16.6397047,64.1848652 10.4450985,62.1288321 7.2004955,55.3406342 C7.2004955,55.3406342 4.08329423,49.6276631 6.39628909,42.5368421 Z M101.596711,42.5368421 C103.792921,49.0949898 101.116709,54.7374839 100.938859,55.1004336 L100.929672,55.1189737 C97.6425618,62.2384146 91.3058247,64.2312325 91.3058247,64.2312325 C88.4565504,65.3102007 86.1551723,65.4005786 86.1551723,65.4005786 C85.7047807,65.4814151 67.8873326,65.4647177 63.1827975,65.4541162 L63.1827975,65.4541162 C62.9968708,65.4512008 62.875591,65.2309545 62.875591,65.2309545 C62.7925116,64.9545202 63.0289271,64.8013285 63.0289271,64.8013285 L63.0289271,64.8013285 C76.1706909,56.0275227 101.596711,42.5368421 101.596711,42.5368421 Z M87.3825959,18.5684211 C87.3825959,18.5684211 95.6712555,26.2170775 95.1385369,34.4816993 C94.8979205,40.4300372 90.2988885,44.1390537 90.2988885,44.1390537 C83.0378399,51.2391861 65.5048845,60.1893307 61.2935708,62.2905954 L61.2935708,62.2905954 C61.0983983,62.4133124 60.8945573,62.2612385 60.8945573,62.2612385 C60.6830985,62.0747827 60.8133886,61.7904706 60.8133886,61.7904706 L60.8133886,61.7904706 C72.0453971,37.1970781 87.3825959,18.5684211 87.3825959,18.5684211 Z M20.648484,17.8677565 C20.648484,17.8677565 36.10542,36.4731733 47.40726,61.0158392 L47.40726,61.0158392 C47.4957,61.2383511 47.323836,61.3708049 47.323836,61.3708049 C47.19738,61.5282749 46.985652,61.4577031 46.928364,61.4361102 C42.801252,59.4013772 25.044612,50.4303301 17.710692,43.3273294 C17.710692,43.3273294 13.159596,39.7668759 12.839364,33.7524718 C12.240876,25.8060326 20.648484,17.8677565 20.648484,17.8677565 Z M46.7638717,6.06315789 C46.7638717,6.06315789 55.5423871,17.3370131 51.259231,59.8748788 L51.259231,59.8748788 C51.2555082,59.8711695 51.2754521,60.1559899 50.9770911,60.2397139 C50.9770911,60.2397139 50.819933,60.312045 50.6242167,60.1143929 C47.8424388,56.115514 34.8945806,37.0653986 32.2617174,25.4712197 C32.2617174,25.4712197 30.7856015,20.5643598 32.2252865,16.0936063 C32.2252865,16.0936063 34.0885804,8.98607793 41.970949,6.96610491 C41.970949,6.96610491 45.4683147,6.17470153 46.7638717,6.06315789 Z M61.2758006,6.06315789 C63.6883609,6.4014727 65.9647327,6.97054098 65.9647327,6.97054098 C73.8610135,8.87882722 75.8078193,16.0928539 75.8078193,16.0928539 C77.1803454,19.8776349 75.7583446,25.469764 75.7583446,25.469764 C73.1404373,37.0169754 60.2636956,55.9631343 57.4069262,60.0668902 L57.4069262,60.0668902 C57.4045323,60.0645058 57.2579699,60.3373831 56.9725589,60.2258478 C56.9725589,60.2258478 56.7759898,60.1702126 56.7448686,59.9018392 L56.7448686,59.9018392 C52.4477448,17.3422608 61.2758006,6.06315789 61.2758006,6.06315789 Z" id="Fill-55" fill="#FFFFFF"></path>
        </g>
    </g>
</svg>