<?xml version="1.0" encoding="UTF-8"?>
<svg width="960px" height="160px" viewBox="0 0 960 160" version="1.1" xmlns="http://www.w3.org/2000/svg" xmlns:xlink="http://www.w3.org/1999/xlink">
    <title>btn_hw+text_singin_light_normal_english</title>
    <defs>
        <polygon id="path-1" points="0 87.0736842 87.9819307 87.0736842 87.9819307 0.11984335 0 0.11984335"></polygon>
    </defs>
    <g id="btn_hw+text_singin_light_normal_english" stroke="none" stroke-width="1" fill="none" fill-rule="evenodd">
        <g id="编组-5备份-5">
            <rect id="矩形" fill="#FFFFFF" x="0" y="0" width="960" height="160" rx="80"></rect>
            <g id="编组-2" transform="translate(83.220354, 31.641593)">
                <text id="Sign-in-with-HUAWEI" font-family="Roboto-Medium, Roboto" font-size="64" font-weight="400" fill="#000000">
                    <tspan x="129" y="69">Sign in with HUAWEI ID</tspan>
                </text>
                <g id="hw_24x24_logo" transform="translate(0.779646, 0.358407)">
                    <rect id="矩形" x="0" y="0" width="96" height="96"></rect>
                    <g id="编组" transform="translate(4.000000, 4.000000)">
                        <g transform="translate(0.000000, 0.463158)" id="Fill-9-Clipped">
                            <mask id="mask-2" fill="white">
                                <use xlink:href="#path-1"></use>
                            </mask>
                            <g id="path-1"></g>
                            <path d="M4.68094138,73.1789474 L4.68094138,78.7844773 L11.0668822,78.7844773 L11.0668822,73.1789474 L13.8947368,73.1789474 L13.8947368,87.0736842 L11.0668822,87.0736842 L11.0668822,81.4309534 L4.68094138,81.4309534 L4.68094138,87.0736842 L1.85263158,87.0736842 L1.85263158,73.1789474 L4.68094138,73.1789474 Z M30.2105408,72.5214713 L30.2105408,80.6090249 C30.2105408,84.7174048 27.9427221,87.0737778 23.9881195,87.0737778 C20.0710635,87.0737778 17.8245995,84.7607075 17.8245995,80.7276979 L17.8245995,80.7276979 L17.8245995,72.5298978 L20.7408021,72.5298978 L20.7408021,80.6289208 C20.7408021,83.0239152 21.9080341,84.3038048 24.0273088,84.3038048 C26.1341461,84.3038048 27.2943381,83.0590256 27.2943381,80.7276979 L27.2943381,80.7276979 L27.2943381,72.5214713 L30.2105408,72.5214713 Z M57.7371051,72.5195051 L61.0010837,82.3803658 L64.1833984,72.5279316 L67.2075477,72.5279316 L62.2107904,86.859277 L59.7751851,86.859277 L56.5076864,77.444786 L53.2390144,86.859277 L50.8235904,86.859277 L45.8146304,72.5279316 L48.9188011,72.5279316 L52.0938411,82.3803658 L55.3568811,72.5195051 L57.7371051,72.5195051 Z M40.5714496,72.5214479 L40.6280043,72.6043084 L46.9006443,86.8506866 L43.8438763,86.8506866 L42.5534443,83.8663063 L35.9750336,83.8663063 L35.8870336,84.0757981 L34.6658283,86.8506866 L31.6890816,86.8506866 L38.0213269,72.5214479 L40.5714496,72.5214479 Z M80.1363904,72.5311852 L80.1363904,75.1426935 L72.4362731,75.1426935 L72.4362731,78.0774512 L77.7411477,78.0774512 L77.7411477,80.6889595 L72.4362731,80.6889595 L72.4362731,84.2388506 L80.4135317,84.2388506 L80.4135317,86.8501249 L69.5590251,86.8501249 L69.5590251,72.5311852 L80.1363904,72.5311852 Z M86.7689387,72.5206755 L86.7689387,86.8393811 L83.8919253,86.8393811 L83.8919253,72.5206755 L86.7689387,72.5206755 Z M39.2570816,76.1495181 L37.1950656,80.9484016 L37.1992896,80.9484016 L37.0596629,81.2812478 L41.4690496,81.2812478 L41.3294229,80.9484016 L41.3364629,80.9484016 L39.2570816,76.1495181 Z" id="Fill-9" fill="#262729" fill-rule="nonzero" mask="url(#mask-2)"></path>
                        </g>
                        <path d="M35.7728282,56.0421053 C35.7728282,56.0491714 36.0484452,56.0491714 36.1140345,56.2945367 C36.1140345,56.2945367 36.1850698,56.4448747 35.9854606,56.6334673 L35.9854606,56.6334673 C33.3903036,58.5457084 25.5053833,64.1859426 22.0241792,65.0772497 C16.9797245,66.3303914 12.1372469,62.2486045 9.26315789,56.9904287 L9.26315789,56.9904287 L35.7728282,56.0421053 Z M52.182448,56.0421053 L78.7368421,56.9876766 C72.7844887,67.4660963 65.9284332,65.0690754 65.9284332,65.0690754 C62.2179244,64.0003802 54.5211771,58.4882784 51.9822833,56.625605 L51.9822833,56.625605 C51.8283105,56.5017512 51.8827932,56.2567203 51.8827932,56.2567203 C51.9486462,56.0800644 52.1817374,56.0489184 52.1817374,56.0489184 L52.1817374,56.0489184 L52.182448,56.0421053 Z M1.6855903,33.8105263 C1.6855903,33.8105263 24.314123,45.7765869 35.9891382,53.5702277 L35.9891382,53.5702277 C35.9870015,53.5763573 36.2161049,53.7614262 36.0867149,53.9660629 C36.0867149,53.9660629 35.9891382,54.1409943 35.8148771,54.1442949 C31.6848429,54.1624482 16.2741362,54.2282243 15.8750452,54.1572615 C15.8750452,54.1572615 13.3340153,54.0853558 10.7908486,53.0532135 C10.7908486,53.0532135 5.28453197,51.2256285 2.40044045,45.1916748 C2.40044045,45.1916748 -0.370405133,40.1134783 1.6855903,33.8105263 Z M86.3081878,33.8105263 C88.32655,39.8375999 85.7152643,44.9946433 85.7152643,44.9946433 C82.7933882,51.3230352 77.1607331,53.0944289 77.1607331,53.0944289 C74.6280448,54.0535118 72.5823754,54.1338476 72.5823754,54.1338476 C72.1820273,54.2057023 56.3442956,54.1908602 52.1624867,54.1814366 L52.1624867,54.1814366 C51.9972185,54.1788451 51.8894142,53.9830707 51.8894142,53.9830707 C51.8155659,53.7373513 52.025713,53.6011809 52.025713,53.6011809 L52.025713,53.6011809 C63.7072808,45.8022424 86.3081878,33.8105263 86.3081878,33.8105263 Z M73.6734186,12.5052632 C73.6734186,12.5052632 81.041116,19.3040688 80.5675884,26.6503994 C80.3537071,31.9378108 76.2656787,35.2347144 76.2656787,35.2347144 C69.8114132,41.5459432 54.226564,49.5016273 50.4831741,51.3694181 L50.4831741,51.3694181 C50.3096874,51.4784999 50.1284954,51.3433231 50.1284954,51.3433231 C49.940532,51.1775846 50.0563454,50.9248627 50.0563454,50.9248627 L50.0563454,50.9248627 C60.040353,29.0640694 73.6734186,12.5052632 73.6734186,12.5052632 Z M14.354208,11.8824503 C14.354208,11.8824503 28.0937067,28.4205985 38.1397867,50.2363015 L38.1397867,50.2363015 C38.2184,50.4340899 38.065632,50.5518266 38.065632,50.5518266 C37.9532267,50.6917999 37.765024,50.6290694 37.7141013,50.6098757 C34.0455573,48.8012242 18.2618773,40.82696 11.7428373,34.5131817 C11.7428373,34.5131817 7.69741867,31.3483341 7.412768,26.0021972 C6.89714757,19.1560342 13.9018838,12.3166876 14.3334326,11.9022863 L14.354208,11.8824503 Z M37.5678859,1.38947368 C37.5678859,1.38947368 45.3710108,11.4106783 41.5637609,49.2221145 L41.5637609,49.2221145 C41.5604517,49.2188173 41.5781796,49.471991 41.3129698,49.5464123 C41.3129698,49.5464123 41.1732738,49.6107067 40.9993037,49.4350159 C38.5266123,45.8804569 27.017405,28.9470209 24.6770821,18.6410842 C24.6770821,18.6410842 23.3649791,14.2794309 24.6446991,10.3054278 C24.6446991,10.3054278 26.3009603,3.98762482 33.3075103,2.19209325 C33.3075103,2.19209325 36.4162797,1.48862358 37.5678859,1.38947368 Z M50.4673783,1.38947368 C52.6118764,1.69019795 54.6353179,2.19603643 54.6353179,2.19603643 C61.6542342,3.89229086 63.3847283,10.304759 63.3847283,10.304759 C64.6047515,13.6690088 63.3407507,18.6397902 63.3407507,18.6397902 C61.013722,28.9039782 49.5677294,45.7450082 47.0283788,49.3927913 L47.0283788,49.3927913 C47.0262509,49.3906718 46.8959732,49.6332294 46.6422746,49.5340869 C46.6422746,49.5340869 46.4675465,49.4846335 46.4398832,49.2460793 L46.4398832,49.2460793 C42.6202176,11.415343 50.4673783,1.38947368 50.4673783,1.38947368 Z" id="Fill-55" fill="#CE0E2D" fill-rule="nonzero"></path>
                    </g>
                </g>
            </g>
        </g>
    </g>
</svg>