<?xml version="1.0" encoding="UTF-8"?>
<svg width="96px" height="96px" viewBox="0 0 96 96" version="1.1" xmlns="http://www.w3.org/2000/svg" xmlns:xlink="http://www.w3.org/1999/xlink">
    <title>hw_24x24_logo</title>
    <defs>
        <polygon id="path-1" points="0 87.0736842 87.9819307 87.0736842 87.9819307 0.11984335 0 0.11984335"></polygon>
    </defs>
    <g id="hw_24x24_logo" stroke="none" stroke-width="1" fill="none" fill-rule="evenodd">
        <g id="编组">
            <rect id="矩形" x="0" y="0" width="96" height="96"></rect>
            <g transform="translate(4.000000, 4.463158)">
                <mask id="mask-2" fill="white">
                    <use xlink:href="#path-1"></use>
                </mask>
                <g id="Clip-9"></g>
                <path d="M4.68094138,73.1789474 L4.68094138,78.7844773 L11.0668822,78.7844773 L11.0668822,73.1789474 L13.8947368,73.1789474 L13.8947368,87.0736842 L11.0668822,87.0736842 L11.0668822,81.4309534 L4.68094138,81.4309534 L4.68094138,87.0736842 L1.85263158,87.0736842 L1.85263158,73.1789474 L4.68094138,73.1789474 Z M30.2105408,72.5214713 L30.2105408,80.6090249 C30.2105408,84.7174048 27.9427221,87.0737778 23.9881195,87.0737778 C20.0710635,87.0737778 17.8245995,84.7607075 17.8245995,80.7276979 L17.8245995,80.7276979 L17.8245995,72.5298978 L20.7408021,72.5298978 L20.7408021,80.6289208 C20.7408021,83.0239152 21.9080341,84.3038048 24.0273088,84.3038048 C26.1341461,84.3038048 27.2943381,83.0590256 27.2943381,80.7276979 L27.2943381,80.7276979 L27.2943381,72.5214713 L30.2105408,72.5214713 Z M57.7371051,72.5195051 L61.0010837,82.3803658 L64.1833984,72.5279316 L67.2075477,72.5279316 L62.2107904,86.859277 L59.7751851,86.859277 L56.5076864,77.444786 L53.2390144,86.859277 L50.8235904,86.859277 L45.8146304,72.5279316 L48.9188011,72.5279316 L52.0938411,82.3803658 L55.3568811,72.5195051 L57.7371051,72.5195051 Z M40.5714496,72.5214479 L40.6280043,72.6043084 L46.9006443,86.8506866 L43.8438763,86.8506866 L42.5534443,83.8663063 L35.9750336,83.8663063 L35.8870336,84.0757981 L34.6658283,86.8506866 L31.6890816,86.8506866 L38.0213269,72.5214479 L40.5714496,72.5214479 Z M80.1363904,72.5311852 L80.1363904,75.1426935 L72.4362731,75.1426935 L72.4362731,78.0774512 L77.7411477,78.0774512 L77.7411477,80.6889595 L72.4362731,80.6889595 L72.4362731,84.2388506 L80.4135317,84.2388506 L80.4135317,86.8501249 L69.5590251,86.8501249 L69.5590251,72.5311852 L80.1363904,72.5311852 Z M86.7689387,72.5206755 L86.7689387,86.8393811 L83.8919253,86.8393811 L83.8919253,72.5206755 L86.7689387,72.5206755 Z M39.2570816,76.1495181 L37.1950656,80.9484016 L37.1992896,80.9484016 L37.0596629,81.2812478 L41.4690496,81.2812478 L41.3294229,80.9484016 L41.3364629,80.9484016 L39.2570816,76.1495181 Z" id="Fill-9" fill="#FFFFFF" mask="url(#mask-2)"></path>
            </g>
            <path d="M39.7728282,60.0421053 C39.7728282,60.0491714 40.0484452,60.0491714 40.1140345,60.2945367 C40.1140345,60.2945367 40.1850698,60.4448747 39.9854606,60.6334673 L39.9854606,60.6334673 C37.3903036,62.5457084 29.5053833,68.1859426 26.0241792,69.0772497 C20.9797245,70.3303914 16.1372469,66.2486045 13.2631579,60.9904287 L13.2631579,60.9904287 L39.7728282,60.0421053 Z M56.182448,60.0421053 L82.7368421,60.9876766 C76.7844887,71.4660963 69.9284332,69.0690754 69.9284332,69.0690754 C66.2179244,68.0003802 58.5211771,62.4882784 55.9822833,60.625605 L55.9822833,60.625605 C55.8283105,60.5017512 55.8827932,60.2567203 55.8827932,60.2567203 C55.9486462,60.0800644 56.1817374,60.0489184 56.1817374,60.0489184 L56.1817374,60.0489184 L56.182448,60.0421053 Z M5.6855903,37.8105263 C5.6855903,37.8105263 28.314123,49.7765869 39.9891382,57.5702277 L39.9891382,57.5702277 C39.9870015,57.5763573 40.2161049,57.7614262 40.0867149,57.9660629 C40.0867149,57.9660629 39.9891382,58.1409943 39.8148771,58.1442949 C35.6848429,58.1624482 20.2741362,58.2282243 19.8750452,58.1572615 C19.8750452,58.1572615 17.3340153,58.0853558 14.7908486,57.0532135 C14.7908486,57.0532135 9.28453197,55.2256285 6.40044045,49.1916748 C6.40044045,49.1916748 3.62959487,44.1134783 5.6855903,37.8105263 Z M90.3081878,37.8105263 C92.32655,43.8375999 89.7152643,48.9946433 89.7152643,48.9946433 C86.7933882,55.3230352 81.1607331,57.0944289 81.1607331,57.0944289 C78.6280448,58.0535118 76.5823754,58.1338476 76.5823754,58.1338476 C76.1820273,58.2057023 60.3442956,58.1908602 56.1624867,58.1814366 L56.1624867,58.1814366 C55.9972185,58.1788451 55.8894142,57.9830707 55.8894142,57.9830707 C55.8155659,57.7373513 56.025713,57.6011809 56.025713,57.6011809 L56.025713,57.6011809 C67.7072808,49.8022424 90.3081878,37.8105263 90.3081878,37.8105263 Z M77.6734186,16.5052632 C77.6734186,16.5052632 85.041116,23.3040688 84.5675884,30.6503994 C84.3537071,35.9378108 80.2656787,39.2347144 80.2656787,39.2347144 C73.8114132,45.5459432 58.226564,53.5016273 54.4831741,55.3694181 L54.4831741,55.3694181 C54.3096874,55.4784999 54.1284954,55.3433231 54.1284954,55.3433231 C53.940532,55.1775846 54.0563454,54.9248627 54.0563454,54.9248627 L54.0563454,54.9248627 C64.040353,33.0640694 77.6734186,16.5052632 77.6734186,16.5052632 Z M18.354208,15.8824503 C18.354208,15.8824503 32.0937067,32.4205985 42.1397867,54.2363015 L42.1397867,54.2363015 C42.2184,54.4340899 42.065632,54.5518266 42.065632,54.5518266 C41.9532267,54.6917999 41.765024,54.6290694 41.7141013,54.6098757 C38.0455573,52.8012242 22.2618773,44.82696 15.7428373,38.5131817 C15.7428373,38.5131817 11.6974187,35.3483341 11.412768,30.0021972 C10.8971476,23.1560342 17.9018838,16.3166876 18.3334326,15.9022863 Z M41.5678859,5.38947368 C41.5678859,5.38947368 49.3710108,15.4106783 45.5637609,53.2221145 L45.5637609,53.2221145 C45.5604517,53.2188173 45.5781796,53.471991 45.3129698,53.5464123 C45.3129698,53.5464123 45.1732738,53.6107067 44.9993037,53.4350159 C42.5266123,49.8804569 31.017405,32.9470209 28.6770821,22.6410842 C28.6770821,22.6410842 27.3649791,18.2794309 28.6446991,14.3054278 C28.6446991,14.3054278 30.3009603,7.98762482 37.3075103,6.19209325 C37.3075103,6.19209325 40.4162797,5.48862358 41.5678859,5.38947368 Z M54.4673783,5.38947368 C56.6118764,5.69019795 58.6353179,6.19603643 58.6353179,6.19603643 C65.6542342,7.89229086 67.3847283,14.304759 67.3847283,14.304759 C68.6047515,17.6690088 67.3407507,22.6397902 67.3407507,22.6397902 C65.013722,32.9039782 53.5677294,49.7450082 51.0283788,53.3927913 L51.0283788,53.3927913 C51.0262509,53.3906718 50.8959732,53.6332294 50.6422746,53.5340869 C50.6422746,53.5340869 50.4675465,53.4846335 50.4398832,53.2460793 L50.4398832,53.2460793 C46.6202176,15.415343 54.4673783,5.38947368 54.4673783,5.38947368 Z" id="Fill-55" fill="#FFFFFF"></path>
        </g>
    </g>
</svg>