<?xml version="1.0" encoding="UTF-8"?>
<svg width="160px" height="160px" viewBox="0 0 160 160" version="1.1" xmlns="http://www.w3.org/2000/svg" xmlns:xlink="http://www.w3.org/1999/xlink">
    <title>hw_40x40_logo_white</title>
    <defs>
        <polygon id="path-1" points="0 108.842105 109.977413 108.842105 109.977413 0.149804188 0 0.149804188"></polygon>
    </defs>
    <g id="hw_40x40_logo_white" stroke="none" stroke-width="1" fill="none" fill-rule="evenodd">
        <g id="编组" transform="translate(20.000000, 20.000000)">
            <rect id="矩形" x="0" y="0" width="120" height="120"></rect>
            <g transform="translate(5.000000, 5.578947)">
                <mask id="mask-2" fill="white">
                    <use xlink:href="#path-1"></use>
                </mask>
                <g id="Clip-9"></g>
                <path d="M5.85117672,91.4736842 L5.85117672,98.4805966 L13.8336027,98.4805966 L13.8336027,91.4736842 L17.3684211,91.4736842 L17.3684211,108.842105 L13.8336027,108.842105 L13.8336027,101.788692 L5.85117672,101.788692 L5.85117672,108.842105 L2.31578947,108.842105 L2.31578947,91.4736842 L5.85117672,91.4736842 Z M37.763176,90.6518392 L37.763176,100.761281 C37.763176,105.896756 34.9284027,108.842222 29.9851493,108.842222 C25.0888293,108.842222 22.2807493,105.950884 22.2807493,100.909622 L22.2807493,100.909622 L22.2807493,90.6623723 L25.9260027,90.6623723 L25.9260027,100.786151 C25.9260027,103.779894 27.3850427,105.379756 30.034136,105.379756 C32.6676827,105.379756 34.1179227,103.823782 34.1179227,100.909622 L34.1179227,100.909622 L34.1179227,90.6518392 L37.763176,90.6518392 Z M72.1713813,90.6493814 L76.2513547,102.975457 L80.229248,90.6599145 L84.0094347,90.6599145 L77.763488,108.574096 L74.7189813,108.574096 L70.634608,96.8059825 L66.548768,108.574096 L63.529488,108.574096 L57.268288,90.6599145 L61.1485013,90.6599145 L65.1173013,102.975457 L69.1961013,90.6493814 L72.1713813,90.6493814 Z M50.714312,90.6518099 L50.7850053,90.7553855 L58.6258053,108.563358 L54.8048453,108.563358 L53.1918053,104.832883 L44.968792,104.832883 L44.858792,105.094748 L43.3322853,108.563358 L39.611352,108.563358 L47.5266587,90.6518099 L50.714312,90.6518099 Z M100.170488,90.6639815 L100.170488,93.9283669 L90.5453413,93.9283669 L90.5453413,97.596814 L97.1764347,97.596814 L97.1764347,100.861199 L90.5453413,100.861199 L90.5453413,105.298563 L100.516915,105.298563 L100.516915,108.562656 L86.9487813,108.562656 L86.9487813,90.6639815 L100.170488,90.6639815 Z M108.461173,90.6508444 L108.461173,108.549226 L104.864907,108.549226 L104.864907,90.6508444 L108.461173,90.6508444 Z M49.071352,95.1868976 L46.493832,101.185502 L46.499112,101.185502 L46.3245787,101.60156 L51.836312,101.60156 L51.6617787,101.185502 L51.6705787,101.185502 L49.071352,95.1868976 Z" id="Fill-9" fill="#FFFFFF" mask="url(#mask-2)"></path>
            </g>
            <path d="M49.7160352,75.0526316 C49.7160352,75.0614642 50.0605565,75.0614642 50.1425431,75.3681709 C50.1425431,75.3681709 50.2313373,75.5560934 49.9818257,75.7918341 L49.9818257,75.7918341 L49.9904091,75.7988393 C46.7378795,78.1821355 36.8817292,85.2324283 32.530224,86.3465621 C26.2246556,87.9129893 20.1715586,82.8107556 16.5789474,76.2380359 L16.5789474,76.2380359 L49.7160352,75.0526316 Z M70.22806,75.0526316 L103.421053,76.2345958 C95.9806109,89.3326204 87.4105415,86.3363442 87.4105415,86.3363442 C82.7724055,85.0004753 73.1514714,78.110348 69.9778542,75.7820063 L69.9778542,75.7820063 C69.7853881,75.6271891 69.8534915,75.3209003 69.8534915,75.3209003 C69.9358077,75.1000805 70.2271717,75.061148 70.2271717,75.061148 L70.2271717,75.061148 L70.22806,75.0526316 Z M7.10698788,47.2631579 C7.10698788,47.2631579 35.3926537,62.2207336 49.9864227,71.9627846 L49.9864227,71.9627846 C49.9837518,71.9704467 50.2701311,72.2017828 50.1083936,72.4575787 C50.1083936,72.4575787 49.9864227,72.6762429 49.7685964,72.6803686 C44.6060536,72.7030602 25.3426703,72.7852803 24.8438065,72.6965769 C24.8438065,72.6965769 21.6675191,72.6066947 18.4885608,71.3165169 C18.4885608,71.3165169 11.605665,69.0320357 8.00055056,61.4895935 C8.00055056,61.4895935 4.53699358,55.1418478 7.10698788,47.2631579 Z M112.885235,47.2631579 C115.408188,54.7969999 112.14408,61.2433041 112.14408,61.2433041 C108.491735,69.153794 101.450916,71.3680362 101.450916,71.3680362 C98.285056,72.5668897 95.7279692,72.6673095 95.7279692,72.6673095 C95.2275341,72.7571278 75.4303696,72.7385752 70.2031084,72.7267958 L70.2031084,72.7267958 C69.9965231,72.7235564 69.8617677,72.4788383 69.8617677,72.4788383 C69.7694573,72.1716892 70.0321412,72.0014761 70.0321412,72.0014761 L70.0321412,72.0014761 C84.634101,62.252803 112.885235,47.2631579 112.885235,47.2631579 Z M97.0917732,20.6315789 C97.0917732,20.6315789 106.301395,29.1300861 105.709485,38.3129992 C105.442134,44.9222635 100.332098,49.043393 100.332098,49.043393 C92.2642666,56.932429 72.783205,66.8770341 68.1039676,69.2117726 L68.1039676,69.2117726 C67.8871092,69.3481249 67.6606192,69.1791539 67.6606192,69.1791539 C67.425665,68.9719807 67.5704318,68.6560784 67.5704318,68.6560784 L67.5704318,68.6560784 C80.0504413,41.3300868 97.0917732,20.6315789 97.0917732,20.6315789 Z M22.94276,19.8530628 C22.94276,19.8530628 40.1171333,40.5257482 52.6747333,67.7953769 L52.6747333,67.7953769 C52.773,68.0426123 52.58204,68.1897832 52.58204,68.1897832 C52.4415333,68.3647499 52.20628,68.2863367 52.1426267,68.2623447 C47.5569467,66.0015303 27.8273467,56.0337001 19.6785467,48.1414771 C19.6785467,48.1414771 14.6217733,44.1854177 14.26596,37.5027465 C13.6009733,28.6733696 22.94276,19.8530628 22.94276,19.8530628 Z M51.9598574,6.73684211 C51.9598574,6.73684211 61.7137635,19.2633479 56.9547012,66.5276431 L56.9547012,66.5276431 C56.9505646,66.5235216 56.9727246,66.8399888 56.6412123,66.9330154 C56.6412123,66.9330154 56.4665922,67.0133833 56.2491296,66.7937699 C53.1582654,62.3505711 38.7717563,41.1837762 35.8463527,28.3013553 C35.8463527,28.3013553 34.2062238,22.8492887 35.8058739,17.8817848 C35.8058739,17.8817848 37.8762004,9.98453103 46.6343878,7.74011657 C46.6343878,7.74011657 50.5203497,6.86077947 51.9598574,6.73684211 Z M68.0842229,6.73684211 C70.7648455,7.11274744 73.2941474,7.74504553 73.2941474,7.74504553 C82.0677927,9.86536358 84.2309104,17.8809488 84.2309104,17.8809488 C85.7559394,22.086261 84.1759384,28.2997378 84.1759384,28.2997378 C81.2671525,41.1299727 66.9596618,62.1812603 63.7854736,66.7409891 L63.7854736,66.7409891 C63.7828136,66.7383398 63.6199665,67.0415368 63.3028433,66.9176087 C63.3028433,66.9176087 63.0844331,66.8557918 63.049854,66.5575991 L63.049854,66.5575991 C58.275272,19.2691787 68.0842229,6.73684211 68.0842229,6.73684211 Z" id="Fill-55" fill="#FFFFFF"></path>
        </g>
    </g>
</svg>