<?xml version="1.0" encoding="UTF-8"?>
<svg width="160px" height="160px" viewBox="0 0 160 160" version="1.1" xmlns="http://www.w3.org/2000/svg" xmlns:xlink="http://www.w3.org/1999/xlink">
    <title>hw_40x40_logo_normal</title>
    <defs>
        <polygon id="path-1" points="0 108.842105 109.977413 108.842105 109.977413 0.149804188 0 0.149804188"></polygon>
    </defs>
    <g id="hw_40x40_logo_normal" stroke="none" stroke-width="1" fill="none" fill-rule="evenodd">
        <g id="编组-2" transform="translate(20.000000, 20.000000)">
            <rect id="矩形" x="0" y="0" width="120" height="120"></rect>
            <g id="编组" transform="translate(5.000000, 5.000000)">
                <g transform="translate(0.000000, 0.578947)">
                    <mask id="mask-2" fill="white">
                        <use xlink:href="#path-1"></use>
                    </mask>
                    <g id="Clip-9"></g>
                    <path d="M5.85117672,91.4736842 L5.85117672,98.4805966 L13.8336027,98.4805966 L13.8336027,91.4736842 L17.3684211,91.4736842 L17.3684211,108.842105 L13.8336027,108.842105 L13.8336027,101.788692 L5.85117672,101.788692 L5.85117672,108.842105 L2.31578947,108.842105 L2.31578947,91.4736842 L5.85117672,91.4736842 Z M37.763176,90.6518392 L37.763176,100.761281 C37.763176,105.896756 34.9284027,108.842222 29.9851493,108.842222 C25.0888293,108.842222 22.2807493,105.950884 22.2807493,100.909622 L22.2807493,100.909622 L22.2807493,90.6623723 L25.9260027,90.6623723 L25.9260027,100.786151 C25.9260027,103.779894 27.3850427,105.379756 30.034136,105.379756 C32.6676827,105.379756 34.1179227,103.823782 34.1179227,100.909622 L34.1179227,100.909622 L34.1179227,90.6518392 L37.763176,90.6518392 Z M72.1713813,90.6493814 L76.2513547,102.975457 L80.229248,90.6599145 L84.0094347,90.6599145 L77.763488,108.574096 L74.7189813,108.574096 L70.634608,96.8059825 L66.548768,108.574096 L63.529488,108.574096 L57.268288,90.6599145 L61.1485013,90.6599145 L65.1173013,102.975457 L69.1961013,90.6493814 L72.1713813,90.6493814 Z M50.714312,90.6518099 L50.7850053,90.7553855 L58.6258053,108.563358 L54.8048453,108.563358 L53.1918053,104.832883 L44.968792,104.832883 L44.858792,105.094748 L43.3322853,108.563358 L39.611352,108.563358 L47.5266587,90.6518099 L50.714312,90.6518099 Z M100.170488,90.6639815 L100.170488,93.9283669 L90.5453413,93.9283669 L90.5453413,97.596814 L97.1764347,97.596814 L97.1764347,100.861199 L90.5453413,100.861199 L90.5453413,105.298563 L100.516915,105.298563 L100.516915,108.562656 L86.9487813,108.562656 L86.9487813,90.6639815 L100.170488,90.6639815 Z M108.461173,90.6508444 L108.461173,108.549226 L104.864907,108.549226 L104.864907,90.6508444 L108.461173,90.6508444 Z M49.071352,95.1868976 L46.493832,101.185502 L46.499112,101.185502 L46.3245787,101.60156 L51.836312,101.60156 L51.6617787,101.185502 L51.6705787,101.185502 L49.071352,95.1868976 Z" id="Fill-9" fill="#262729" mask="url(#mask-2)"></path>
                </g>
                <path d="M44.7160352,70.0526316 C44.7160352,70.0614642 45.0605565,70.0614642 45.1425431,70.3681709 C45.1425431,70.3681709 45.2313373,70.5560934 44.9818257,70.7918341 L44.9818257,70.7918341 L44.9904091,70.7988393 C41.7378795,73.1821355 31.8817292,80.2324283 27.530224,81.3465621 C21.2246556,82.9129893 15.1715586,77.8107556 11.5789474,71.2380359 L11.5789474,71.2380359 L44.7160352,70.0526316 Z M65.22806,70.0526316 L98.4210526,71.2345958 C90.9806109,84.3326204 82.4105415,81.3363442 82.4105415,81.3363442 C77.7724055,80.0004753 68.1514714,73.110348 64.9778542,70.7820063 L64.9778542,70.7820063 C64.7853881,70.6271891 64.8534915,70.3209003 64.8534915,70.3209003 C64.9358077,70.1000805 65.2271717,70.061148 65.2271717,70.061148 L65.2271717,70.061148 L65.22806,70.0526316 Z M2.10698788,42.2631579 C2.10698788,42.2631579 30.3926537,57.2207336 44.9864227,66.9627846 L44.9864227,66.9627846 C44.9837518,66.9704467 45.2701311,67.2017828 45.1083936,67.4575787 C45.1083936,67.4575787 44.9864227,67.6762429 44.7685964,67.6803686 C39.6060536,67.7030602 20.3426703,67.7852803 19.8438065,67.6965769 C19.8438065,67.6965769 16.6675191,67.6066947 13.4885608,66.3165169 C13.4885608,66.3165169 6.60566496,64.0320357 3.00055056,56.4895935 C3.00055056,56.4895935 -0.463006417,50.1418478 2.10698788,42.2631579 Z M107.885235,42.2631579 C110.408188,49.7969999 107.14408,56.2433041 107.14408,56.2433041 C103.491735,64.153794 96.4509164,66.3680362 96.4509164,66.3680362 C93.285056,67.5668897 90.7279692,67.6673095 90.7279692,67.6673095 C90.2275341,67.7571278 70.4303696,67.7385752 65.2031084,67.7267958 L65.2031084,67.7267958 C64.9965231,67.7235564 64.8617677,67.4788383 64.8617677,67.4788383 C64.7694573,67.1716892 65.0321412,67.0014761 65.0321412,67.0014761 L65.0321412,67.0014761 C79.634101,57.252803 107.885235,42.2631579 107.885235,42.2631579 Z M92.0917732,15.6315789 C92.0917732,15.6315789 101.301395,24.1300861 100.709485,33.3129992 C100.442134,39.9222635 95.3320984,44.043393 95.3320984,44.043393 C87.2642666,51.932429 67.783205,61.8770341 63.1039676,64.2117726 L63.1039676,64.2117726 C62.8871092,64.3481249 62.6606192,64.1791539 62.6606192,64.1791539 C62.425665,63.9719807 62.5704318,63.6560784 62.5704318,63.6560784 L62.5704318,63.6560784 C75.0504413,36.3300868 92.0917732,15.6315789 92.0917732,15.6315789 Z M17.94276,14.8530628 C17.94276,14.8530628 35.1171333,35.5257482 47.6747333,62.7953769 L47.6747333,62.7953769 C47.773,63.0426123 47.58204,63.1897832 47.58204,63.1897832 C47.4415333,63.3647499 47.20628,63.2863367 47.1426267,63.2623447 C42.5569467,61.0015303 22.8273467,51.0337001 14.6785467,43.1414771 C14.6785467,43.1414771 9.62177333,39.1854177 9.26596,32.5027465 C8.60097333,23.6733696 17.94276,14.8530628 17.94276,14.8530628 Z M46.9598574,1.73684211 C46.9598574,1.73684211 56.7137635,14.2633479 51.9547012,61.5276431 L51.9547012,61.5276431 C51.9505646,61.5235216 51.9727246,61.8399888 51.6412123,61.9330154 C51.6412123,61.9330154 51.4665922,62.0133833 51.2491296,61.7937699 C48.1582654,57.3505711 33.7717563,36.1837762 30.8463527,23.3013553 C30.8463527,23.3013553 29.2062238,17.8492887 30.8058739,12.8817848 C30.8058739,12.8817848 32.8762004,4.98453103 41.6343878,2.74011657 C41.6343878,2.74011657 45.5203497,1.86077947 46.9598574,1.73684211 Z M63.0842229,1.73684211 C65.7648455,2.11274744 68.2941474,2.74504553 68.2941474,2.74504553 C77.0677927,4.86536358 79.2309104,12.8809488 79.2309104,12.8809488 C80.7559394,17.086261 79.1759384,23.2997378 79.1759384,23.2997378 C76.2671525,36.1299727 61.9596618,57.1812603 58.7854736,61.7409891 L58.7854736,61.7409891 C58.7828136,61.7383398 58.6199665,62.0415368 58.3028433,61.9176087 C58.3028433,61.9176087 58.0844331,61.8557918 58.049854,61.5575991 L58.049854,61.5575991 C53.275272,14.2691787 63.0842229,1.73684211 63.0842229,1.73684211 Z" id="Fill-55" fill="#CE0E2D"></path>
            </g>
        </g>
    </g>
</svg>